<?xml version="1.0" encoding="UTF-8" standalone="no"?> <svg width="101" height="101" viewBox="0 0 101 101" fill="none" xmlns="http://www.w3.org/2000/svg">
<path d="M90.584 66.621H74.722V54.417H90.343C91.171 54.417 91.843 53.745 91.843 52.917V36.106C91.843 35.277 91.171 34.606 90.343 34.606H74.875V20.218C74.875 19.389 74.203 18.718 73.375 18.718H33.958V11.812C33.958 10.983 33.287 10.312 32.458 10.312H9.417C8.588 10.312 7.917 10.983 7.917 11.812V28.624C7.917 29.453 8.588 30.124 9.417 30.124H19.437V39.86L19.749 56.643V66.351H9.73C8.901 66.351 8.23 67.023 8.23 67.851V84.663C8.23 85.491 8.901 86.163 9.73 86.163H32.771C33.6 86.163 34.271 85.491 34.271 84.663V67.851C34.271 67.023 33.6 66.351 32.771 66.351H22.75V56.615L22.438 39.832V30.124H32.459C33.288 30.124 33.959 29.453 33.959 28.624V21.718H71.876V34.606H45.858C45.029 34.606 44.358 35.277 44.358 36.106V52.917C44.358 53.745 45.029 54.417 45.858 54.417H71.722V66.621H45.643C44.814 66.621 44.143 67.293 44.143 68.121V84.933C44.143 85.761 44.814 86.433 45.643 86.433H90.584C91.412 86.433 92.084 85.761 92.084 84.933V68.121C92.084 67.293 91.412 66.621 90.584 66.621ZM31.271 83.163H11.23V69.351H31.271V83.163ZM30.958 27.124H10.917V13.312H30.958V27.124ZM47.358 37.606H88.843V51.417H47.358V37.606ZM89.084 83.433H47.143V69.621H89.084V83.433Z" fill="black" stroke="white" stroke-width="2.2"/>
</svg>
